<svg width="162" height="51" viewBox="0 0 162 51" fill="none" xmlns="http://www.w3.org/2000/svg">
<g clip-path="url(#clip0_2_620)">
<path d="M85.1357 13.4658C85.1357 15.2654 83.6741 16.7144 81.8601 16.7144C80.0461 16.7144 78.5855 15.2654 78.5855 13.4658C78.5855 11.6663 79.9963 10.2172 81.8601 10.2172C83.7254 10.2671 85.1357 11.7167 85.1357 13.4658V13.4658ZM71.6327 20.0139V20.8139C71.6327 20.8139 70.0714 18.8136 66.746 18.8136C61.2548 18.8136 56.9715 22.9624 56.9715 28.7102C56.9715 34.4084 61.2044 38.6067 66.746 38.6067C70.1217 38.6067 71.6327 36.5575 71.6327 36.5575V37.4069C71.6327 37.8068 71.9357 38.1059 72.3383 38.1059H76.4187V19.3119H72.3383C71.9357 19.3134 71.6327 19.6639 71.6327 20.0139V20.0139ZM71.6327 32.0591C70.8777 33.1591 69.3657 34.1088 67.5523 34.1088C64.328 34.1088 61.8588 32.1095 61.8588 28.7102C61.8588 25.3113 64.328 23.312 67.5523 23.312C69.3159 23.312 70.928 24.3116 71.6327 25.3612V32.0591ZM79.4422 19.3134H84.2785V38.1074H79.4422V19.3134V19.3134ZM151.691 18.8131C148.365 18.8131 146.803 20.8134 146.803 20.8134V10.2671H141.967V38.1074H146.048C146.451 38.1074 146.753 37.7574 146.753 37.4074V36.558C146.753 36.558 148.315 38.6072 151.64 38.6072C157.132 38.6072 161.414 34.4099 161.414 28.7116C161.414 23.0134 157.132 18.8131 151.691 18.8131V18.8131ZM150.885 34.0584C149.02 34.0584 147.559 33.1097 146.803 32.0092V25.3113C147.559 24.3116 149.171 23.262 150.885 23.262C154.109 23.262 156.578 25.2613 156.578 28.6602C156.578 32.0591 154.109 34.0584 150.885 34.0584ZM139.448 26.9615V38.1574H134.611V27.5108C134.611 24.4125 133.603 23.1622 130.884 23.1622C129.424 23.1622 127.912 23.9122 126.953 25.0122V38.1079H122.117V19.3139H125.945C126.348 19.3139 126.651 19.6639 126.651 20.0139V20.8139C128.062 19.3638 129.925 18.8136 131.789 18.8136C133.906 18.8136 135.669 19.4143 137.08 20.6136C138.792 22.0132 139.448 23.8123 139.448 26.9615V26.9615ZM110.377 18.8131C107.052 18.8131 105.49 20.8134 105.49 20.8134V10.2671H100.653V38.1074H104.734C105.137 38.1074 105.44 37.7574 105.44 37.4074V36.558C105.44 36.558 107.002 38.6072 110.326 38.6072C115.818 38.6072 120.101 34.4099 120.101 28.7116C120.151 23.0129 115.869 18.8131 110.377 18.8131V18.8131ZM109.57 34.0584C107.706 34.0584 106.246 33.1097 105.49 32.0092V25.3113C106.246 24.3116 107.858 23.262 109.57 23.262C112.796 23.262 115.264 25.2613 115.264 28.6602C115.264 32.0591 112.796 34.0584 109.57 34.0584ZM96.4714 18.8131C97.932 18.8131 98.688 19.0637 98.688 19.0637V23.5117C98.688 23.5117 94.6575 22.162 92.1389 25.0117V38.1568H87.3015V19.3134H91.3829C91.786 19.3134 92.0875 19.6634 92.0875 20.0134V20.8134C92.9955 19.7633 94.9605 18.8131 96.4714 18.8131V18.8131ZM46.2408 36.4077C45.9891 35.808 45.737 35.1584 45.4853 34.6082C45.0817 33.7089 44.6785 32.8585 44.3267 32.0591L44.2763 32.0092C40.7994 24.5113 37.0718 16.9146 33.1414 9.4178L32.9905 9.1172C32.5771 8.33949 32.1742 7.55632 31.782 6.76789C31.2777 5.86761 30.7743 4.91889 29.968 4.01861C28.3559 2.01932 26.0381 0.919312 23.5698 0.919312C21.0502 0.919312 18.7833 2.01933 17.1213 3.91825C16.3654 4.81753 15.8107 5.76725 15.3074 6.66753C14.9142 7.45547 14.5113 8.23862 14.0989 9.01684L13.9474 9.31743C10.0679 16.8143 6.28944 24.4115 2.81302 31.9088L2.7622 32.0082C2.40988 32.8091 2.00621 33.6584 1.60305 34.5572C1.35139 35.1075 1.09973 35.7072 0.848076 36.3568C0.192756 38.2058 -0.00908437 39.9554 0.243581 41.7555C0.797734 45.5044 3.31634 48.6521 6.79326 50.0527C8.10339 50.603 9.46386 50.8526 10.8742 50.8526C11.2773 50.8526 11.7806 50.8027 12.1843 50.7523C13.8473 50.5526 15.5601 50.0033 17.223 49.0536C19.2886 47.9036 21.2536 46.2549 23.4702 43.8556C25.6868 46.2549 27.7021 47.9036 29.7174 49.0536C31.3808 50.0033 33.0931 50.5526 34.7556 50.7523C35.1587 50.8032 35.6631 50.8526 36.0662 50.8526C37.477 50.8526 38.8873 50.603 40.1466 50.0527C43.6739 48.6521 46.1421 45.4545 46.6968 41.7555C47.0969 40.0063 46.8956 38.2577 46.2408 36.4077V36.4077ZM23.519 39.0067C20.7981 35.6078 19.0345 32.4091 18.4305 29.7108C18.1788 28.5609 18.128 27.5612 18.2795 26.6614C18.3796 25.8615 18.6826 25.1615 19.0858 24.5618C20.0431 23.2131 21.6552 22.3628 23.5195 22.3628C25.3843 22.3628 27.0468 23.1627 27.9538 24.5618C28.3569 25.1615 28.6589 25.862 28.7606 26.6614C28.9111 27.5617 28.8607 28.6108 28.6091 29.7108C28.0026 32.3592 26.239 35.5584 23.519 39.0067ZM43.6205 41.356C43.2682 43.955 41.5046 46.2049 39.0363 47.2046C37.8273 47.7039 36.5167 47.8542 35.2076 47.7039C33.9483 47.5536 32.688 47.1536 31.3788 46.4047C29.5649 45.404 27.7514 43.8556 25.635 41.5557C28.9599 37.5077 30.9752 33.8082 31.7312 30.5102C32.084 28.9603 32.1348 27.5612 31.9828 26.261C31.782 25.0117 31.328 23.8617 30.6228 22.8621C29.06 20.6121 26.4398 19.3134 23.5185 19.3134C20.5973 19.3134 17.977 20.6631 16.4152 22.8621C15.71 23.8617 15.256 25.0117 15.0547 26.261C14.8534 27.5612 14.9032 29.0103 15.3064 30.5102C16.0619 33.8082 18.1275 37.5572 21.4021 41.6057C19.3365 43.9051 17.4722 45.455 15.6582 46.4546C14.3481 47.2046 13.0893 47.6046 11.83 47.7538C10.47 47.9041 9.15936 47.7039 8.00072 47.2545C5.53245 46.2549 3.76883 44.0049 3.4165 41.4059C3.26551 40.1566 3.36567 38.9073 3.86999 37.5077C4.02049 37.0074 4.27315 36.5081 4.52481 35.9084C4.87763 35.1085 5.27979 34.2581 5.68345 33.4088L5.73429 33.3094C9.2102 25.8615 12.9383 18.2643 16.8178 10.8673L16.9688 10.5667C17.3725 9.81776 17.7757 9.01784 18.1783 8.26786C18.5815 7.46794 19.0345 6.71796 19.5891 6.06784C20.6471 4.86946 22.0574 4.21884 23.6197 4.21884C25.182 4.21884 26.5923 4.86946 27.6503 6.06784C28.2049 6.71945 28.6579 7.46944 29.061 8.26786C29.4647 9.01784 29.8679 9.81776 30.27 10.5667L30.4215 10.8673C34.2419 18.295 37.9205 25.7937 41.4552 33.3594V33.4093C41.8589 34.2102 42.2112 35.109 42.6144 35.9099C42.8661 36.5086 43.1182 37.0079 43.2692 37.5082C43.6714 38.8065 43.8224 40.0568 43.6205 41.356V41.356Z" fill="#CFCFDE"/>
</g>
<defs>
<clipPath id="clip0_2_620">
<rect width="161.323" height="49.9333" fill="white" transform="translate(0.112549 0.9198)"/>
</clipPath>
</defs>
</svg>
