<svg width="154" height="47" viewBox="0 0 154 47" fill="none" xmlns="http://www.w3.org/2000/svg">
<g clip-path="url(#clip0_2_624)">
<path fill-rule="evenodd" clip-rule="evenodd" d="M95.4826 36.4895C86.588 43.0435 73.6504 46.5353 62.4916 46.5353C46.8587 46.5353 32.8429 40.7872 22.1693 31.2249C21.3607 30.4728 22.0615 29.4521 23.0858 30.0431C34.5679 36.7044 48.7454 40.6797 63.408 40.6797C73.273 40.6797 84.1622 38.6384 94.1889 34.3944C95.6982 33.8035 96.9381 35.4151 95.4826 36.4895Z" fill="#CFCFDE"/>
<path fill-rule="evenodd" clip-rule="evenodd" d="M99.2022 32.2455C98.0701 30.7951 91.6552 31.5472 88.7982 31.9232C87.9357 32.0307 87.7739 31.2786 88.5825 30.7414C93.7037 27.1421 102.059 28.2165 103.03 29.3984C104 30.5802 102.76 38.9606 97.9623 42.936C97.2076 43.5269 96.5068 43.2046 96.8303 42.3988C97.9084 39.7127 100.334 33.7497 99.2022 32.2455Z" fill="#CFCFDE"/>
<path fill-rule="evenodd" clip-rule="evenodd" d="M88.9599 5.49273V2.00089C88.9599 1.46368 89.3372 1.14135 89.8224 1.14135H105.455C105.941 1.14135 106.372 1.5174 106.372 2.00089V4.95552C106.372 5.43901 105.941 6.08366 105.186 7.15807L97.0998 18.6543C100.119 18.6006 103.299 19.0303 105.994 20.5345C106.587 20.8568 106.749 21.394 106.803 21.8775V25.5842C106.803 26.1215 106.264 26.7124 105.671 26.3901C100.873 23.8652 94.4584 23.5966 89.1755 26.4438C88.6365 26.7124 88.0435 26.1752 88.0435 25.638V22.0924C88.0435 21.5552 88.0435 20.5882 88.6365 19.7287L98.0162 6.35226H89.8763C89.3912 6.35226 88.9599 5.97622 88.9599 5.49273V5.49273ZM31.9804 27.1421H27.2366C26.8053 27.0884 26.428 26.7661 26.3741 26.3363V2.05461C26.3741 1.57113 26.8053 1.19508 27.2905 1.19508H31.7108C32.196 1.19508 32.5195 1.57112 32.5734 2.00089V5.1704H32.6812C33.8132 2.10833 36.0234 0.657872 38.9344 0.657872C41.8992 0.657872 43.786 2.10833 45.0797 5.1704C46.2118 2.10833 48.8532 0.657872 51.6564 0.657872C53.6509 0.657872 55.8072 1.46368 57.1549 3.3439C58.6643 5.38529 58.3408 8.33993 58.3408 10.9722V26.3363C58.3408 26.8198 57.9096 27.1959 57.4244 27.1959H52.7345C52.2494 27.1421 51.872 26.7661 51.872 26.3363V13.4434C51.872 12.4227 51.9798 9.8441 51.7642 8.87712C51.3868 7.2655 50.3626 6.78202 48.961 6.78202C47.829 6.78202 46.5891 7.53412 46.104 8.76969C45.6188 10.0053 45.6727 12.0466 45.6727 13.4434V26.3363C45.6727 26.8198 45.2415 27.1959 44.7563 27.1959H40.0125C39.5273 27.1421 39.15 26.7661 39.15 26.3363V13.4434C39.15 10.7573 39.5812 6.7283 36.239 6.7283C32.8429 6.7283 32.9507 10.5962 32.9507 13.4434V26.3363C32.8968 26.7661 32.5195 27.1421 31.9804 27.1421V27.1421ZM119.849 0.657872C126.91 0.657872 130.738 6.67458 130.738 14.3566C130.738 21.7701 126.533 27.6793 119.849 27.6793C112.948 27.6793 109.175 21.6626 109.175 14.1418C109.121 6.56715 112.948 0.657872 119.849 0.657872ZM119.849 5.65389C116.345 5.65389 116.129 10.435 116.129 13.3897C116.129 16.3443 116.075 22.6833 119.795 22.6833C123.46 22.6833 123.676 17.5799 123.676 14.4641C123.676 12.4227 123.568 9.95155 122.975 8.01761C122.436 6.29855 121.358 5.65389 119.849 5.65389ZM139.848 27.1421H135.104C134.619 27.0884 134.242 26.7124 134.242 26.2826V1.94716C134.296 1.5174 134.673 1.14135 135.158 1.14135H139.578C140.01 1.14135 140.333 1.46369 140.441 1.83973V5.54645H140.549C141.896 2.21577 143.729 0.657872 147.018 0.657872C149.12 0.657872 151.222 1.40995 152.57 3.50506C153.81 5.439 153.81 8.71597 153.81 11.0797V26.3901C153.756 26.8198 153.379 27.1421 152.893 27.1421H148.15C147.718 27.0884 147.341 26.7661 147.287 26.3901V13.1748C147.287 10.4887 147.611 6.62087 144.322 6.62087C143.19 6.62087 142.112 7.37296 141.573 8.55481C140.926 10.059 140.818 11.5094 140.818 13.1748V26.2826C140.764 26.7661 140.333 27.1421 139.848 27.1421V27.1421ZM76.5074 15.5385C76.5074 17.365 76.5613 18.9229 75.6449 20.5882C74.8902 21.9312 73.7043 22.7371 72.3566 22.7371C70.5238 22.7371 69.4456 21.3403 69.4456 19.2989C69.4456 15.2699 73.0574 14.5178 76.5074 14.5178V15.5385ZM81.3051 27.0884C80.9817 27.357 80.5504 27.4107 80.1731 27.1959C78.6098 25.9066 78.2863 25.2619 77.4238 24.0264C74.8363 26.6587 72.9496 27.4645 69.6073 27.4645C65.6182 27.4645 62.4917 24.9933 62.4917 20.1048C62.4917 16.2369 64.594 13.6583 67.5589 12.369C70.1464 11.2408 73.7582 11.026 76.5074 10.7036V10.1127C76.5074 8.98458 76.6152 7.64156 75.9144 6.67459C75.3215 5.81506 74.2433 5.43901 73.273 5.43901C71.4402 5.43901 69.823 6.35227 69.4456 8.28621C69.3378 8.71598 69.0683 9.14573 68.637 9.14573L64.0549 8.66224C63.6776 8.5548 63.2463 8.28621 63.3542 7.69528C64.4323 2.10833 69.4456 0.442993 73.9738 0.442993C76.2918 0.442993 79.3106 1.03392 81.1434 2.8067C83.4614 4.95552 83.2458 7.85644 83.2458 10.9722V18.332C83.2458 20.5345 84.1622 21.5015 85.0247 22.7371C85.3481 23.1668 85.402 23.704 85.0247 23.9726C84.0005 24.7784 82.2755 26.2826 81.3051 27.0884V27.0884ZM14.245 15.5385C14.245 17.365 14.2989 18.9229 13.3825 20.5882C12.6278 21.9312 11.4419 22.7371 10.0942 22.7371C8.26137 22.7371 7.18324 21.3403 7.18324 19.2989C7.18324 15.2699 10.795 14.5178 14.245 14.5178V15.5385ZM18.9888 27.0884C18.6654 27.357 18.2341 27.4107 17.8568 27.1959C16.2935 25.9066 15.9701 25.2619 15.1075 24.0264C12.52 26.6587 10.6333 27.4645 7.29105 27.4645C3.30195 27.4645 0.175354 24.9933 0.175354 20.1048C0.175354 16.2369 2.27772 13.6583 5.24259 12.369C7.83012 11.2408 11.4419 11.026 14.1911 10.7036V10.1127C14.1911 8.98458 14.2989 7.64156 13.5982 6.67459C13.0052 5.81506 11.927 5.43901 10.9567 5.43901C9.12389 5.43901 7.50668 6.35227 7.12933 8.28621C7.02152 8.71598 6.75198 9.14573 6.32073 9.14573L1.73865 8.66224C1.3613 8.5548 0.930053 8.28621 1.03787 7.69528C2.116 2.10833 7.12934 0.442993 11.6575 0.442993C13.9755 0.442993 16.9943 1.03392 18.8271 2.8067C21.1451 4.95552 20.9295 7.85644 20.9295 10.9722V18.332C20.9295 20.5345 21.8459 21.5015 22.7084 22.7371C23.0319 23.1668 23.0858 23.704 22.7084 23.9726C21.6842 24.7784 19.9592 26.2826 18.9888 27.0884V27.0884Z" fill="#CFCFDE"/>
</g>
<defs>
<clipPath id="clip0_2_624">
<rect width="153.641" height="46.0923" fill="white" transform="translate(153.813 46.5353) rotate(-180)"/>
</clipPath>
</defs>
</svg>
