<svg width="169" height="56" viewBox="0 0 169 56" fill="none" xmlns="http://www.w3.org/2000/svg">
<g clip-path="url(#clip0_2_611)">
<path d="M20.7271 0.925781H22.2237C27.4197 1.03825 32.5309 3.11896 36.2019 6.80237C34.8465 8.18014 33.4628 9.50167 32.1355 10.8794C30.0741 9.02367 27.5891 7.58967 24.8782 7.08355C20.8683 6.24002 16.5477 6.9992 13.1873 9.27673C9.51626 11.6667 7.03124 15.7157 6.49471 20.0458C5.90169 24.3197 7.11596 28.8185 9.9116 32.1364C12.5943 35.3699 16.6889 37.3944 20.9247 37.535C24.8782 37.7599 29.001 36.5509 31.8814 33.7953C34.1405 31.8552 35.1853 28.9029 35.5242 26.0349C30.8366 26.0349 26.1489 26.063 21.4613 26.0349V20.2426H41.2002C42.2168 26.4566 40.7484 33.4579 36.0042 37.9005C32.8415 41.0497 28.4645 42.9055 24.0028 43.271C19.6822 43.6928 15.2205 42.8773 11.38 40.7966C6.7771 38.3504 3.10605 34.2171 1.29877 29.3527C-0.395559 24.882 -0.423798 19.8209 1.15757 15.322C2.59775 11.2168 5.36516 7.58967 8.92324 5.05908C12.3401 2.55661 16.4912 1.17884 20.7271 0.925781Z" fill="#CFCFDE"/>
<path d="M133.965 2.38672H140.008V42.5388C138.003 42.5388 135.97 42.5669 133.965 42.5106C133.993 29.1547 133.965 15.7707 133.965 2.38672V2.38672Z" fill="#CFCFDE"/>
<path d="M54.6421 16.305C58.3696 15.602 62.4077 16.3893 65.4858 18.6106C68.2814 20.5789 70.2299 23.6718 70.8229 27.0459C71.5854 30.9543 70.6252 35.2282 68.0837 38.3211C65.3446 41.7796 60.8546 43.6353 56.4776 43.3542C52.4677 43.1292 48.5707 41.1329 46.1987 37.8712C43.516 34.2721 42.8665 29.3234 44.3349 25.1058C45.8033 20.5789 49.9544 17.1204 54.6421 16.305V16.305ZM55.4892 21.6473C53.9643 22.041 52.5524 22.9126 51.5358 24.1498C48.7966 27.4114 48.9661 32.7257 51.9876 35.7624C53.7102 37.5057 56.3082 38.3211 58.7085 37.8431C60.9393 37.4494 62.8878 35.9592 63.9609 33.991C65.8246 30.645 65.2881 26.0337 62.436 23.4187C60.6005 21.7317 57.9178 21.0287 55.4892 21.6473Z" fill="#CFCFDE"/>
<path d="M84.5752 16.305C88.8392 15.4895 93.4986 16.6705 96.6896 19.651C101.886 24.2904 102.45 32.9787 98.0168 38.3211C95.3342 41.6952 90.9854 43.551 86.6931 43.3542C82.5985 43.2417 78.5603 41.2172 76.1318 37.8712C73.3926 34.1878 72.7996 29.1266 74.3527 24.8246C75.9059 20.4383 79.9723 17.0923 84.5752 16.305V16.305ZM85.4223 21.6473C83.8975 22.041 82.4855 22.9126 81.4689 24.1217C78.758 27.3271 78.871 32.557 81.7795 35.6218C83.5021 37.4494 86.1848 38.3492 88.6698 37.8431C90.8724 37.4213 92.8491 35.9592 93.9222 33.991C95.7577 30.6169 95.2212 26.0056 92.3408 23.3906C90.5053 21.7036 87.8226 21.0287 85.4223 21.6473Z" fill="#CFCFDE"/>
<path d="M109.962 17.9358C113.209 15.9113 117.53 15.349 121.031 17.0923C122.133 17.5703 123.036 18.3857 123.912 19.2011C123.94 18.4419 123.912 17.6546 123.94 16.8673C125.832 16.8955 127.724 16.8673 129.644 16.8955V41.6952C129.616 45.4349 128.656 49.3995 125.945 52.1269C122.98 55.1355 118.434 56.0633 114.339 55.4448C109.962 54.798 106.15 51.6208 104.455 47.5999C106.15 46.7845 107.929 46.1378 109.679 45.3786C110.668 47.6843 112.673 49.6525 115.186 50.1024C117.699 50.5523 120.608 49.9337 122.246 47.853C123.997 45.716 123.997 42.7918 123.912 40.1769C122.613 41.4422 121.116 42.5669 119.309 42.9886C115.384 44.0852 111.063 42.7356 108.042 40.0925C104.992 37.4495 103.185 33.3724 103.354 29.3235C103.439 24.7403 106.037 20.3258 109.962 17.9358V17.9358ZM115.807 21.5349C114.085 21.816 112.475 22.772 111.374 24.0936C108.719 27.2427 108.719 32.2758 111.402 35.3688C112.927 37.1964 115.384 38.2086 117.756 37.9556C119.987 37.7306 122.048 36.3248 123.149 34.3846C125.013 31.0949 124.703 26.6242 122.189 23.7562C120.636 21.9847 118.151 21.1131 115.807 21.5349V21.5349Z" fill="#CFCFDE"/>
<path d="M147.265 19.3698C150.654 16.2206 155.878 15.1521 160.227 16.8111C164.35 18.3575 166.976 22.2659 168.303 26.2867C162.175 28.8173 156.076 31.3198 149.948 33.8504C150.795 35.4531 152.094 36.9152 153.845 37.5057C156.302 38.3773 159.239 38.068 161.3 36.4372C162.119 35.8186 162.768 35.0032 163.39 34.2159C164.943 35.2563 166.496 36.2685 168.049 37.3089C165.846 40.5986 162.147 42.9043 158.166 43.2698C153.76 43.8041 149.073 42.117 146.22 38.6866C141.533 33.288 141.985 24.2341 147.265 19.3698V19.3698ZM150.287 24.5716C149.327 25.9493 148.931 27.6364 148.96 29.2953C153.054 27.6083 157.149 25.9212 161.244 24.206C160.566 22.6314 158.928 21.6754 157.262 21.4224C154.579 20.9444 151.784 22.3784 150.287 24.5716V24.5716Z" fill="#CFCFDE"/>
</g>
<defs>
<clipPath id="clip0_2_611">
<rect width="168.303" height="54.6985" fill="white" transform="translate(0 0.9198)"/>
</clipPath>
</defs>
</svg>
