<svg width="132" height="52" viewBox="0 0 132 52" fill="none" xmlns="http://www.w3.org/2000/svg">
<path d="M104.461 16.8329V0.93103H107.705V14.6006C106.807 15.0521 105.584 15.9048 104.461 16.8329ZM98.82 21.6235C99.8184 20.4196 100.842 19.2156 102.065 18.1873V0.93103H98.82V21.6235ZM61.232 34.2647C61.232 38.5035 62.9043 42.5417 65.9742 45.6267C69.0192 48.6867 73.0375 50.3923 77.2806 50.3923C79.0776 50.3923 80.9245 50.016 82.2224 49.3639V46.1033C80.6999 46.7554 78.853 47.1316 77.2806 47.1316C70.342 47.1316 64.5016 41.2625 64.5016 34.2898V31.3552C64.5016 24.3825 70.367 18.5133 77.2806 18.5133C80.7249 18.5133 83.9446 19.8427 86.3406 22.2505C88.7367 24.6584 90.0595 27.8939 90.0595 31.3552V50.4173H93.3041V30.7282C93.1045 26.5646 91.3324 22.6769 88.3373 19.7674C85.3173 16.8579 81.3988 15.2527 77.2806 15.2527C73.0625 15.2527 69.0441 16.9332 65.9742 20.0182C62.9292 23.0782 61.232 27.1164 61.232 31.3803V34.2647V34.2647ZM109.802 26.4392C111.275 24.9594 113.171 24.1317 115.043 24.1317C119.062 24.1317 122.182 27.292 122.182 31.305V34.2396C122.182 38.2778 119.037 41.413 115.043 41.413C113.097 41.413 111.225 40.3345 109.752 38.4032C108.454 36.6976 107.606 34.365 107.481 32.2832L104.86 35.5439C105.384 38.0019 106.657 40.3846 108.479 42.04C110.351 43.7456 112.697 44.6987 115.043 44.6987C120.784 44.6987 125.451 40.0084 125.451 34.2647V31.3301C125.451 28.5962 124.353 25.9877 122.356 24.0062C120.36 21.9997 117.764 20.8961 115.043 20.8961C113.321 20.8961 110.601 21.5232 107.356 24.4577C106.482 25.3356 104.436 27.3923 103.188 28.847C101.091 31.1546 98.0713 34.5908 95.4756 38.0771V43.1687C98.3458 39.4566 99.9931 37.3748 102.714 34.2396C105.11 31.3803 108.105 27.9441 109.802 26.4392V26.4392ZM33.1283 20.2941V16.4316C30.1832 14.8514 26.9885 14.1491 22.7454 14.1491C18.4026 14.1491 14.2844 15.7543 11.1645 18.6388C8.01972 21.5482 6.29756 25.3607 6.29756 29.4239V30.4773C6.29756 38.9048 13.0115 45.7521 21.2978 45.7521C28.0118 45.7521 30.7822 43.5449 31.481 42.8427V33.0357H20.4992V36.2963H28.4361V41.2123H28.4111C27.3878 41.6136 25.2663 42.4664 21.2978 42.4664C18.153 42.4664 15.1829 41.2374 12.9865 38.9801C10.7652 36.7227 9.56717 33.7129 9.56717 30.4523V29.3988C9.56717 22.9027 15.6072 17.3847 22.7704 17.3847C27.6873 17.4097 30.6325 18.2374 33.1283 20.2941V20.2941ZM56.7893 24.1317C58.0123 24.1317 59.0606 24.3323 59.9092 24.7336C60.3085 23.7304 60.7328 22.8776 61.3318 21.8743C60.4583 21.2473 58.3368 20.8459 56.7893 20.8459C50.8741 20.8459 46.4064 25.3356 46.4064 31.305V50.3672H49.6511V31.305C49.6511 27.0913 52.5713 24.1317 56.7893 24.1317V24.1317ZM0.65686 29.4239V30.4773C0.65686 36.1458 2.80332 41.413 6.67195 45.3508C10.5406 49.2636 15.732 51.4206 21.2729 51.4206C25.7405 51.4206 29.684 50.4173 33.0285 48.4108C35.774 46.7554 36.997 45.1 37.0968 44.9495V27.3923H20.4992V30.6529H33.8521V43.9713C32.2797 45.5515 28.5609 48.1851 21.2978 48.1851C16.5557 48.1851 12.1629 46.3541 8.91824 43.0433C5.69855 39.7576 3.92647 35.293 3.92647 30.5024V29.449C3.92647 24.9092 5.94814 20.3945 9.4923 17.0586C13.1113 13.6475 17.8286 11.7664 22.7704 11.7664C27.3878 11.7664 30.5825 12.4686 33.1533 14.0488V10.3618C30.4577 9.20801 27.238 8.70638 22.7454 8.70638C10.7652 8.70638 0.65686 18.1873 0.65686 29.4239ZM87.6385 50.3672V31.305C87.6385 25.4359 83.071 20.8459 77.2306 20.8459C74.5101 20.8459 71.9144 21.9495 69.9177 23.9561C67.921 25.9626 66.8228 28.5711 66.8228 31.28V34.2145C66.8228 39.883 71.5899 44.6485 77.2057 44.6485C78.7531 44.6485 80.8497 44.2723 82.1475 43.1938V39.8078C80.8746 40.8361 79.0526 41.4381 77.2057 41.4381C73.2123 41.4381 70.0674 38.2778 70.0674 34.2647V31.3301C70.0674 27.292 73.2123 24.1567 77.2057 24.1567C81.2241 24.1567 84.3439 27.317 84.3439 31.3301V50.3923H87.6385V50.3672ZM56.7893 18.4632C58.9857 18.4632 60.9075 18.9397 62.6297 19.9179C63.4284 18.8896 64.252 18.087 64.876 17.4599C63.054 16.0553 59.9591 15.2026 56.8143 15.2026C52.2967 15.2026 48.2035 16.8329 45.2833 19.8176C42.3881 22.7522 40.7907 26.8405 40.7907 31.3301V50.3923H44.0354V31.3301C44.0104 23.7554 49.2518 18.4632 56.7893 18.4632V18.4632ZM126.35 19.9681C123.305 16.9081 119.286 15.2026 115.043 15.2026C111.948 15.2026 108.854 16.3563 107.131 17.5101C103.587 19.8678 100.692 22.4512 95.4506 29.2483V34.1393C99.8933 28.3203 104.086 23.7554 107.281 21.2222C109.378 19.5417 112.348 18.4883 115.043 18.4883C121.982 18.4883 127.822 24.3825 127.822 31.3301V34.2647C127.822 37.7009 126.474 40.9364 124.028 43.3694C121.607 45.7772 118.413 47.1066 115.043 47.1066C109.353 47.1066 104.336 43.1687 102.988 37.8263L100.692 40.6104C102.364 46.2287 108.404 50.3672 115.043 50.3672C119.286 50.3672 123.28 48.6616 126.35 45.6016C129.395 42.5166 131.092 38.5035 131.092 34.2396V31.305C131.092 27.0662 129.395 23.0281 126.35 19.9681Z" fill="#CFCFDE"/>
</svg>
