<svg width="130" height="40" viewBox="0 0 130 40" fill="none" xmlns="http://www.w3.org/2000/svg">
<rect width="130" height="40" rx="20" fill="#F4C467"/>
<path d="M47.92 27H45.64L38.78 16.62V27H36.5V13.08H38.78L45.64 23.44V13.08H47.92V27ZM53.5941 14.94V19.02H58.3941V20.88H53.5941V25.14H58.9941V27H51.3141V13.08H58.9941V14.94H53.5941ZM80.3023 13.1L76.1823 27H73.6023L70.6823 16.48L67.5823 27L65.0223 27.02L61.0823 13.1H63.5023L66.3823 24.42L69.5023 13.1H72.0623L74.9623 24.36L77.8623 13.1H80.3023ZM87.1628 27.14C86.2295 27.14 85.3895 26.98 84.6428 26.66C83.8961 26.3267 83.3095 25.86 82.8828 25.26C82.4561 24.66 82.2428 23.96 82.2428 23.16H84.6828C84.7361 23.76 84.9695 24.2533 85.3828 24.64C85.8095 25.0267 86.4028 25.22 87.1628 25.22C87.9495 25.22 88.5628 25.0333 89.0028 24.66C89.4428 24.2733 89.6628 23.78 89.6628 23.18C89.6628 22.7133 89.5228 22.3333 89.2428 22.04C88.9761 21.7467 88.6361 21.52 88.2228 21.36C87.8228 21.2 87.2628 21.0267 86.5428 20.84C85.6361 20.6 84.8961 20.36 84.3228 20.12C83.7628 19.8667 83.2828 19.48 82.8828 18.96C82.4828 18.44 82.2828 17.7467 82.2828 16.88C82.2828 16.08 82.4828 15.38 82.8828 14.78C83.2828 14.18 83.8428 13.72 84.5628 13.4C85.2828 13.08 86.1161 12.92 87.0628 12.92C88.4095 12.92 89.5095 13.26 90.3628 13.94C91.2295 14.6067 91.7095 15.5267 91.8028 16.7H89.2828C89.2428 16.1933 89.0028 15.76 88.5628 15.4C88.1228 15.04 87.5428 14.86 86.8228 14.86C86.1695 14.86 85.6361 15.0267 85.2228 15.36C84.8095 15.6933 84.6028 16.1733 84.6028 16.8C84.6028 17.2267 84.7295 17.58 84.9828 17.86C85.2495 18.1267 85.5828 18.34 85.9828 18.5C86.3828 18.66 86.9295 18.8333 87.6228 19.02C88.5428 19.2733 89.2895 19.5267 89.8628 19.78C90.4495 20.0333 90.9428 20.4267 91.3428 20.96C91.7561 21.48 91.9628 22.18 91.9628 23.06C91.9628 23.7667 91.7695 24.4333 91.3828 25.06C91.0095 25.6867 90.4561 26.1933 89.7228 26.58C89.0028 26.9533 88.1495 27.14 87.1628 27.14Z" fill="#252641"/>
</svg>
